<svg xmlns="http://www.w3.org/2000/svg" viewBox="0 0 27.5 27.5"><defs><style>.cls-1{fill:#1ccfc9;}</style></defs><title>Play Button</title><g id="Layer_2" data-name="Layer 2"><g id="Home"><g id="Play_Button" data-name="Play Button"><path class="cls-1" d="M13.75,27.5A13.75,13.75,0,1,1,27.5,13.75,13.77,13.77,0,0,1,13.75,27.5Zm0-25.82A12.07,12.07,0,1,0,25.82,13.75,12.09,12.09,0,0,0,13.75,1.68Z"/><path class="cls-1" d="M9.8,13.75V9.1A.81.81,0,0,1,11,8.38l4.09,2.33,4,2.32a.83.83,0,0,1,0,1.44l-4.07,2.32L11,19.12A.81.81,0,0,1,9.8,18.4Z"/></g></g></g></svg>